<svg width="103" height="103" viewBox="0 0 103 103" fill="none" xmlns="http://www.w3.org/2000/svg">
<path d="M26.629 22.0527C33.2705 16.4277 41.8633 13.0356 51.2484 13.0356C72.2984 13.0356 89.3627 30.1 89.3627 51.15C89.3627 72.2 72.2984 89.2643 51.2484 89.2643C30.1984 89.2643 13.134 72.2 13.134 51.15C13.134 42.1255 16.2705 33.8336 21.5126 27.3048" stroke="#746D68" stroke-width="2.30066" stroke-miterlimit="10" stroke-linecap="round" stroke-linejoin="round"/>
<path d="M51.2481 81.4186C67.965 81.4186 81.5167 67.8668 81.5167 51.15C81.5167 34.4331 67.965 20.8813 51.2481 20.8813C34.5313 20.8813 20.9795 34.4331 20.9795 51.15C20.9795 67.8668 34.5313 81.4186 51.2481 81.4186Z" stroke="#746D68" stroke-width="2.30066" stroke-miterlimit="10" stroke-linecap="round" stroke-linejoin="round"/>
<path d="M54.7843 65.2269C54.6583 70.921 53.0949 76.4908 50.2394 81.4187M50.2394 20.8813L49.1312 24.5725C47.9476 28.5149 47.4941 32.6403 47.7932 36.7457M44.7917 64.0432C40.6271 68.1217 35.4781 71.0534 29.8452 72.5532M72.6515 29.7467L69.2579 31.5733C65.6484 33.5158 62.4224 36.0988 59.7376 39.1962M37.1713 54.6859C31.4772 54.5599 25.9074 52.9966 20.9795 50.141M81.5169 50.141L77.8257 49.0329C73.7776 47.8175 69.5374 47.3722 65.3251 47.7203M38.5876 44.9285C34.3894 40.7246 31.3739 35.488 29.8451 29.7469M72.6515 72.5532L70.8249 69.1596C68.9112 65.6037 66.3757 62.4197 63.3387 59.7583" stroke="#746D68" stroke-width="2.30066" stroke-miterlimit="10" stroke-linecap="round" stroke-linejoin="round"/>
<path d="M51.2486 65.2273C59.0232 65.2273 65.3257 58.9247 65.3257 51.1501C65.3257 43.3756 59.0232 37.073 51.2486 37.073C43.474 37.073 37.1714 43.3756 37.1714 51.1501C37.1714 58.9247 43.474 65.2273 51.2486 65.2273Z" stroke="#746D68" stroke-width="2.30066" stroke-miterlimit="10" stroke-linecap="round" stroke-linejoin="round"/>
<path d="M57.296 54.6868C56.0801 56.7614 53.827 58.1544 51.2487 58.1544C47.3803 58.1544 44.2443 55.0184 44.2443 51.15C44.2443 47.2815 47.3803 44.1455 51.2487 44.1455C54.32 44.1455 56.9297 46.1222 57.8748 48.8728M49.7202 49.6214L52.7773 52.6785M52.7773 49.6214L49.7202 52.6785" stroke="#746D68" stroke-width="2.30066" stroke-miterlimit="10" stroke-linecap="round" stroke-linejoin="round"/>
</svg>
