<svg width="103" height="103" viewBox="0 0 103 103" fill="none" xmlns="http://www.w3.org/2000/svg">
<path fill-rule="evenodd" clip-rule="evenodd" d="M81.9379 41.9855C80.0071 49.3044 76.4275 55.5514 71.1678 60.782C69.8465 62.0959 66.0747 65.0951 64.7247 65.9052C64.0247 66.3252 63.9918 66.3293 59.2431 66.5758C56.6156 66.7123 54.4602 66.8655 54.4533 66.9165C54.4343 67.0587 55.6144 67.5781 56.4519 67.7961C57.6024 68.0957 57.9195 68.38 57.8366 69.0383C57.6489 70.5266 52.6857 73.389 48.8337 74.2306C46.5454 74.7305 44.9467 74.7951 42.1713 74.4997C39.3703 74.2016 39.0643 74.0995 38.83 73.3846C38.6728 72.9048 38.9824 72.2266 39.4365 72.0562C39.6286 71.9842 40.3988 72.0359 41.4429 72.1912C45.8608 72.8479 50.1685 72.0406 53.6185 69.9091L54.2916 69.4931L53.6065 69.0769C52.6231 68.4792 51.3552 67.253 51.0278 66.583C50.6738 65.8583 50.7925 65.2109 51.3341 64.9127C51.6051 64.7634 53.4254 64.6166 57.6761 64.401L63.6378 64.0986L65.5644 62.6097C66.624 61.7908 67.4709 61.0949 67.4465 61.0631C67.4221 61.0313 66.9274 61.0451 66.3472 61.0937C64.9425 61.2114 62.1192 60.9563 61.3727 60.6441C61.0566 60.5119 60.6924 60.2667 60.5636 60.099C60.2653 59.711 60.3466 59.0792 60.7429 58.7044C61.0417 58.4219 61.1152 58.4213 63.1777 58.6847C65.8502 59.0261 67.2632 58.9044 69.4602 58.143L70.9804 57.616L72.0204 56.4176C73.0392 55.2436 75.596 51.6871 75.4365 51.666C75.392 51.6601 74.9752 51.7861 74.5103 51.9462C73.3776 52.3359 72.7125 52.4467 72.0058 52.3633C71.5332 52.3075 71.363 52.212 71.1464 51.8816C70.5755 51.0108 71.1366 50.2839 72.5322 50.086C74.192 49.8507 76.281 48.9062 77.2771 47.9409C77.5503 47.676 77.8889 47.0472 78.2511 46.1318C80.7709 39.763 81.3996 32.9182 80.0693 26.3333C79.9088 25.5387 79.748 24.7766 79.7118 24.6398C79.6513 24.4103 79.5769 24.4072 78.75 24.6006C76.4481 25.139 73.2942 26.3841 71.1398 27.6051C69.8462 28.3382 69.33 28.4134 68.8162 27.9431C68.4753 27.6311 68.4073 27.0286 68.6644 26.5973C69.0406 25.9663 72.7704 24.1131 75.5114 23.1952C77.6636 22.4745 80.088 21.9062 80.6773 21.9841C81.1982 22.0529 81.5176 22.5395 81.8423 23.759C82.5349 26.3598 82.9792 29.5325 83.0559 32.4233C83.109 34.4312 82.455 40.0255 81.9379 41.9855ZM70.6766 42.5336C69.6551 43.8895 64.7181 49.0373 62.0624 51.5156C50.6745 62.143 37.5025 70.3818 22.9225 75.9965C21.483 76.5508 20.1496 76.9838 19.9592 76.9586C19.3632 76.8798 18.9482 76.3214 19.0293 75.7076C19.1158 75.0529 19.3792 74.8886 21.7183 74.0309C23.9539 73.2111 26.8215 72.0118 29.3298 70.8478C30.4864 70.311 31.4535 69.8564 31.4789 69.8372C31.5044 69.8183 31.4206 69.1467 31.2928 68.3448C30.6385 64.2412 31.3216 59.6399 33.1379 55.9148C33.6946 54.7729 34.0318 54.4907 34.7291 54.5828C35.2135 54.6469 35.4863 54.9758 35.9076 56.0042C36.1817 56.6734 36.7998 57.5518 36.8265 57.3102C36.8344 57.2399 36.8162 56.6727 36.7865 56.05C36.6505 53.2064 37.4568 50.5766 39.0776 48.5782C40.7273 46.544 51.107 37.3767 51.9976 37.1672C52.4878 37.0519 53.234 37.5034 53.2642 37.9336C53.277 38.1144 53.2513 38.804 53.2074 39.4661C53.1255 40.6957 53.3086 42.2091 53.6587 43.1981C53.7664 43.5023 53.8704 43.7534 53.8899 43.756C53.9093 43.7585 53.9877 43.1005 54.064 42.2937C54.4027 38.7124 55.6941 35.6414 57.7382 33.5561C59.1954 32.0698 62.4718 29.8844 64.4904 29.0524C65.0578 28.8186 65.5022 29.0216 65.8076 29.6539C65.9905 30.0326 65.9727 30.0973 65.273 31.5935C64.1177 34.064 63.8612 34.9658 63.4835 37.8834L63.1484 40.472L62.7544 40.705C62.2412 41.0084 61.797 40.9395 61.4008 40.4948C61.1514 40.2149 61.0789 39.9351 61.0707 39.2207C61.0557 37.9365 61.3919 35.6138 61.7895 34.2533C61.9744 33.6203 62.1101 33.078 62.0911 33.0482C62.015 32.9294 60.5847 33.932 59.8374 34.6281C57.1161 37.1627 56.0474 40.6839 56.2618 46.4101C56.3058 47.5884 56.2856 47.7376 56.0322 48.1004C55.4966 48.867 54.7759 48.7013 53.7358 47.5722C52.3844 46.1049 51.211 43.6372 51.0045 41.8278C50.964 41.4744 50.914 41.0988 50.893 40.9931C50.8499 40.7753 50.3038 41.2157 47.3237 43.8725C44.563 46.3338 41.6321 49.0937 40.9758 49.8501C40.2667 50.6674 39.5012 52.2441 39.2346 53.4372C38.9524 54.6994 39.0091 56.8343 39.378 58.8377C39.6415 60.2686 39.6482 60.4789 39.4415 60.7948C39.3141 60.9896 39.026 61.2088 38.8013 61.2819C38.4546 61.3945 38.2982 61.3686 37.7678 61.1101C36.8821 60.6786 35.9598 59.9453 35.2277 59.0907C34.881 58.6862 34.5611 58.3994 34.5168 58.4536C34.0693 59.0009 33.3264 62.8097 33.3063 64.6603C33.2907 66.0817 33.4918 68.3303 33.6545 68.5556C33.776 68.7238 37.032 66.9902 40.3866 64.9711C50.4261 58.929 59.9256 51.1446 67.3602 42.868C69.0638 40.9714 69.4901 40.6146 69.9759 40.6788C70.4048 40.7355 71.0668 41.5153 71.0078 41.8942C70.9863 42.0327 70.8373 42.3204 70.6766 42.5336Z" fill="#726965"/>
</svg>
