<svg width="103" height="103" viewBox="0 0 103 103" fill="none" xmlns="http://www.w3.org/2000/svg">
<path d="M60.0534 55.0738C60.3269 54.8024 60.7695 54.8038 61.0415 55.0766C61.3134 55.3501 61.312 55.7926 61.0388 56.0647L58.7405 58.3507L58.6299 58.4394C58.3584 58.6175 57.9904 58.5869 57.7524 58.348C57.4806 58.0743 57.4815 57.6305 57.7551 57.3585L60.0534 55.0738Z" fill="#726965"/>
<path fill-rule="evenodd" clip-rule="evenodd" d="M15.5581 26.8334C18.5515 27.3258 20.7544 29.0589 22.5459 30.7326C22.9953 31.1525 23.4282 31.5764 23.8384 31.9787C24.2523 32.3846 24.6435 32.7679 25.0285 33.1224C25.7109 33.7507 26.3272 34.2467 26.9256 34.5786L29.3931 34.337C29.4471 34.3284 29.5023 34.3234 29.5583 34.3234H86.7189L86.8349 34.3302C87.1014 34.3599 87.3487 34.491 87.5228 34.6987C88.2294 35.5431 88.7222 36.818 89.0759 38.1175C89.4389 39.4511 89.6915 40.9516 89.8484 42.3553C90.0052 43.7587 90.0705 45.0992 90.049 46.1207C90.0384 46.6255 90.0053 47.0867 89.9426 47.4501C89.9121 47.6265 89.8658 47.828 89.7897 48.0137C89.7514 48.107 89.6912 48.2323 89.5959 48.3563C89.5261 48.447 89.4128 48.5703 89.2452 48.6675L89.0582 48.7534C88.9525 48.7915 88.8416 48.8135 88.7293 48.8162L65.8252 49.3731L65.8265 49.3744C65.3817 49.387 65.0436 49.7396 65.0431 50.1715V50.1769L65.0363 51.4435H66.064C66.4497 51.4435 66.7625 51.7566 66.7628 52.1422C66.7628 52.5282 66.4499 52.841 66.064 52.841H65.0295L64.9926 60.5836H65.4335L65.574 60.5972C65.8924 60.6622 66.132 60.9448 66.1322 61.2823C66.1322 61.6201 65.8926 61.9024 65.574 61.9675L65.4335 61.9811H64.9858L64.8753 84.6123C64.8736 84.945 64.7141 85.2581 64.4453 85.4543C64.1389 85.6781 63.7584 85.8172 63.4177 85.9129C63.057 86.0141 62.6446 86.0926 62.2125 86.1518C61.347 86.2702 60.3256 86.3237 59.3191 86.321C58.3122 86.3183 57.2893 86.2589 56.4217 86.1395C55.9887 86.0799 55.5765 86.0023 55.2166 85.9047C54.8752 85.8121 54.5012 85.6803 54.1984 85.4762C53.9102 85.2814 53.7373 84.9561 53.7371 84.6082V50.1019C53.7368 49.67 53.384 49.3035 52.9387 49.2912L29.6961 48.819C29.6538 48.8239 29.6113 48.8315 29.5678 48.8312L29.4614 48.8258L26.9706 48.5555C26.5776 48.8307 26.0513 49.3039 25.3697 49.9599C24.5754 50.7245 23.6151 51.6907 22.5991 52.6036C21.5783 53.5207 20.4476 54.4342 19.2581 55.1216C18.1466 55.7639 16.9222 56.2447 15.6441 56.3022L15.3875 56.3076L15.2128 56.294L14.2206 56.1261L14.2165 56.1247C13.3985 55.9825 12.8029 55.2849 12.8026 54.4488V28.5394C12.8026 27.739 13.3884 27.0261 14.2288 26.9384L15.277 26.8252L15.4175 26.8197C15.4645 26.821 15.5116 26.8257 15.5581 26.8334ZM30.3635 36.4197C29.9651 38.1245 29.8131 40.3027 29.8517 42.3416C29.8738 43.5042 29.9577 44.5935 30.0824 45.4875C30.1534 45.9964 30.2363 46.4134 30.3171 46.7335L52.9892 47.1948H52.9974L53.2867 47.218C54.7173 47.4004 55.8331 48.6205 55.8334 50.1019V59.4521C56.0488 59.4165 56.2778 59.4809 56.4435 59.6473C56.6996 59.9049 56.7106 60.3097 56.4831 60.5836H56.9253C57.311 60.5836 57.6237 60.8967 57.6241 61.2823C57.624 61.6682 57.3112 61.9811 56.9253 61.9811H55.8334V83.8971C56.0698 83.9572 56.3644 84.0149 56.7083 84.0622C57.462 84.166 58.3876 84.2221 59.3246 84.2247C60.2621 84.2272 61.1834 84.1765 61.9287 84.0745C62.2671 84.0282 62.5533 83.9691 62.7817 83.9094L62.8895 61.9811H61.1794C60.7936 61.981 60.4806 61.6681 60.4806 61.2823C60.4809 60.8968 60.7938 60.5837 61.1794 60.5836H62.8963L62.9277 53.9752C62.7219 53.9994 62.5078 53.9355 62.3504 53.7773C62.0786 53.5035 62.0795 53.0611 62.3531 52.7892L62.9359 52.2078L62.9468 50.166C62.9501 48.5891 64.2031 47.3234 65.7678 47.2795H65.7719L87.9172 46.7376C87.9328 46.5557 87.9473 46.3339 87.9527 46.0757C87.9718 45.1646 87.9131 43.9186 87.7644 42.5873C87.6155 41.2558 87.3798 39.8687 87.0533 38.6689C86.7906 37.7037 86.4878 36.9384 86.1757 36.4197H30.3635ZM14.8989 28.9734V54.113L15.4544 54.2072C16.3013 54.1913 17.2231 53.8771 18.2086 53.3078C19.2158 52.7258 20.2232 51.9202 21.1989 51.0436C22.1793 50.1626 23.076 49.2579 23.9162 48.4491C24.7091 47.6858 25.5174 46.9399 26.2186 46.5561L26.3646 46.4906C26.5141 46.4363 26.6746 46.4162 26.8341 46.4333L28.1361 46.5725C28.0878 46.3166 28.0432 46.0495 28.0051 45.7768C27.8671 44.7868 27.7801 43.6126 27.7567 42.3812C27.7208 40.4858 27.8374 38.3834 28.1907 36.5603L26.8246 36.6954C26.6337 36.7141 26.4406 36.6802 26.2677 36.5972C25.3036 36.1335 24.4274 35.4179 23.6091 34.6646C23.196 34.2843 22.7807 33.8788 22.3699 33.4758C21.9554 33.0693 21.5428 32.663 21.1156 32.2639C19.4304 30.6895 17.6426 29.3414 15.3452 28.9256L14.8989 28.9734Z" fill="#726965"/>
<path d="M81.9121 72.7985L79.1142 72.1844C77.3609 75.7268 73.9325 77.997 69.1662 77.9971C68.7803 77.9971 68.4674 77.6842 68.4674 77.2983C68.4677 76.9126 68.7805 76.5995 69.1662 76.5995C73.2642 76.5994 76.1453 74.7561 77.7017 71.8746L74.9652 71.2754L79.7598 66.0346L81.9121 72.7985Z" fill="#726965"/>
<path d="M73.9416 60.5836C74.3271 60.5838 74.6401 60.8969 74.6404 61.2823C74.6404 61.668 74.3273 61.9808 73.9416 61.9811H69.6876C69.3016 61.9811 68.9888 61.6682 68.9888 61.2823C68.9891 60.8967 69.3018 60.5836 69.6876 60.5836H73.9416Z" fill="#726965"/>
<path d="M82.4485 60.5836C82.8342 60.5836 83.1469 60.8967 83.1472 61.2823C83.1472 61.6682 82.8344 61.9811 82.4485 61.9811H78.1944C77.8087 61.9808 77.4956 61.668 77.4956 61.2823C77.4959 60.8969 77.8089 60.5838 78.1944 60.5836H82.4485Z" fill="#726965"/>
<path d="M89.6969 58.3971C90.0792 58.4486 90.3472 58.801 90.2961 59.1833L90.2278 59.6377C90.1532 60.0809 90.0598 60.4877 89.9467 60.8224C89.8719 61.0434 89.7782 61.2636 89.6573 61.4488C89.5604 61.5972 89.3954 61.8018 89.1374 61.9129L89.0213 61.9538C88.9589 61.9716 88.8938 61.9811 88.8289 61.9811H86.7025C86.3166 61.9811 86.0038 61.6682 86.0038 61.2823C86.0041 60.8967 86.3168 60.5836 86.7025 60.5836H88.5409C88.565 60.5313 88.5932 60.4624 88.6228 60.3747C88.7329 60.0489 88.8343 59.5744 88.9122 58.9963L88.9449 58.8584C89.0522 58.5522 89.3627 58.3523 89.6969 58.3971Z" fill="#726965"/>
<path d="M88.9872 51.4612C89.0388 51.4732 89.0895 51.491 89.1374 51.5144C89.6098 51.7461 89.8595 52.2485 90.0054 52.6527C90.1262 52.9878 90.2177 53.3805 90.2865 53.8005L90.3479 54.2277L90.352 54.3696C90.3268 54.6935 90.0768 54.9664 89.742 55.0083C89.4068 55.0501 89.0966 54.8469 88.9927 54.5388L88.9613 54.401L88.9067 54.0216C88.8475 53.6616 88.7748 53.3585 88.6911 53.1263C88.6398 52.9843 88.5917 52.8956 88.5587 52.841H86.7599C86.374 52.841 86.0611 52.5282 86.0611 52.1422C86.0614 51.7566 86.3742 51.4435 86.7599 51.4435H88.8289L88.9872 51.4612Z" fill="#726965"/>
<path d="M74.3429 51.4435C74.7285 51.4436 75.0414 51.7567 75.0417 52.1422C75.0417 52.5281 74.7287 52.8409 74.3429 52.841H70.2034C69.8176 52.841 69.5047 52.5282 69.5047 52.1422C69.505 51.7566 69.8177 51.4435 70.2034 51.4435H74.3429Z" fill="#726965"/>
<path d="M82.6204 51.4435C83.0061 51.4435 83.3189 51.7566 83.3192 52.1422C83.3192 52.5282 83.0063 52.841 82.6204 52.841H78.4823C78.0964 52.841 77.7836 52.5282 77.7836 52.1422C77.7839 51.7566 78.0966 51.4435 78.4823 51.4435H82.6204Z" fill="#726965"/>
</svg>
